<svg id="Layer_1" data-name="Layer 1" xmlns="http://www.w3.org/2000/svg" viewBox="0 0 393 220"><defs><style>.cls-1{fill:#00a887;}.cls-2{fill:#f33;}.cls-3,.cls-4{fill:none;}.cls-3{stroke:#fff;stroke-miterlimit:10;stroke-width:4.65px;}.cls-4{stroke:#2c328c;stroke-linecap:round;stroke-linejoin:round;stroke-width:8px;}</style></defs><title>phishmarket</title><path class="cls-1" d="M134,105.84l29.34,20a2.28,2.28,0,0,1,0,3.76l-29.34,20a2.28,2.28,0,0,1-3.56-1.88v-40a2.28,2.28,0,0,1,3.56-1.88"/><path class="cls-1" d="M103.63,112.19a4.49,4.49,0,0,1-1.8-3.5,4.36,4.36,0,0,1,4.3-4.3,4,4,0,0,1,2.51.81l23.74,18a4.23,4.23,0,0,1,0,7.16l-23.74,18a4,4,0,0,1-2.51.81,4.36,4.36,0,0,1-4.3-4.3,4.49,4.49,0,0,1,1.8-3.49l19.8-14.61Z"/><path class="cls-1" d="M264.4,65.17l29.34,20a2.28,2.28,0,0,1,0,3.76L264.4,109a2.28,2.28,0,0,1-3.56-1.88v-40a2.28,2.28,0,0,1,3.56-1.88"/><path class="cls-1" d="M234,71.53a4.49,4.49,0,0,1-1.8-3.5,4.36,4.36,0,0,1,4.3-4.3,4,4,0,0,1,2.51.81l23.74,18a4.23,4.23,0,0,1,0,7.16l-23.74,18a4,4,0,0,1-2.51.81,4.36,4.36,0,0,1-4.3-4.3,4.49,4.49,0,0,1,1.8-3.49l19.8-14.61Z"/><path class="cls-1" d="M170.61,163.52l29.34,20a2.28,2.28,0,0,1,0,3.76l-29.34,20a2.28,2.28,0,0,1-3.56-1.88v-40a2.28,2.28,0,0,1,3.56-1.88"/><path class="cls-1" d="M140.24,169.87a4.49,4.49,0,0,1-1.8-3.5,4.36,4.36,0,0,1,4.3-4.3,4,4,0,0,1,2.51.81l23.74,18a4.23,4.23,0,0,1,0,7.16l-23.74,18a4,4,0,0,1-2.51.81,4.36,4.36,0,0,1-4.3-4.3,4.49,4.49,0,0,1,1.8-3.49L160,184.47Z"/><path class="cls-1" d="M354,155.7l29.34,20a2.28,2.28,0,0,1,0,3.76l-29.34,20a2.28,2.28,0,0,1-3.56-1.88v-40A2.28,2.28,0,0,1,354,155.7"/><path class="cls-1" d="M323.64,162a4.49,4.49,0,0,1-1.8-3.5,4.36,4.36,0,0,1,4.3-4.3,4,4,0,0,1,2.51.81l23.74,18a4.23,4.23,0,0,1,0,7.16l-23.74,18a4,4,0,0,1-2.51.81,4.36,4.36,0,0,1-4.3-4.3,4.49,4.49,0,0,1,1.8-3.49l19.8-14.61Z"/><path class="cls-1" d="M100.1,43.4l29.34,20a2.28,2.28,0,0,1,0,3.76l-29.34,20a2.28,2.28,0,0,1-3.56-1.88v-40a2.28,2.28,0,0,1,3.56-1.88"/><path class="cls-1" d="M69.74,49.75a4.49,4.49,0,0,1-1.8-3.5,4.36,4.36,0,0,1,4.3-4.3,4,4,0,0,1,2.51.81l23.74,18a4.23,4.23,0,0,1,0,7.16L74.75,86a4,4,0,0,1-2.51.81,4.36,4.36,0,0,1-4.3-4.3A4.49,4.49,0,0,1,69.74,79l19.8-14.61Z"/><polygon class="cls-2" points="173.77 63.97 159.32 49.52 159.32 29.09 173.77 14.63 194.21 14.63 208.66 29.09 208.66 49.52 194.21 63.97 173.77 63.97"/><line class="cls-3" x1="172.46" y1="50.84" x2="195.52" y2="27.77"/><line class="cls-3" x1="195.52" y1="50.84" x2="172.46" y2="27.77"/><polygon class="cls-2" points="45.55 158.7 31.1 144.25 31.1 123.81 45.55 109.36 65.98 109.36 80.43 123.81 80.43 144.25 65.98 158.7 45.55 158.7"/><line class="cls-3" x1="44.23" y1="145.56" x2="67.3" y2="122.5"/><line class="cls-3" x1="67.3" y1="145.56" x2="44.23" y2="122.5"/><polygon class="cls-2" points="225.95 177.07 211.5 162.62 211.5 142.19 225.95 127.73 246.39 127.73 260.84 142.19 260.84 162.62 246.39 177.07 225.95 177.07"/><line class="cls-3" x1="224.64" y1="163.94" x2="247.7" y2="140.87"/><line class="cls-3" x1="247.7" y1="163.94" x2="224.64" y2="140.87"/><polygon class="cls-2" points="331.34 105.44 316.89 90.99 316.89 70.55 331.34 56.1 351.78 56.1 366.23 70.55 366.23 90.99 351.78 105.44 331.34 105.44"/><line class="cls-3" x1="330.03" y1="92.3" x2="353.09" y2="69.24"/><line class="cls-3" x1="353.09" y1="92.3" x2="330.03" y2="69.24"/><polyline class="cls-4" points="167.05 105.1 176.12 114.4 211.62 81.27"/><polyline class="cls-4" points="66.05 193.1 75.12 202.4 110.62 169.27"/><polyline class="cls-4" points="265.05 35.1 274.12 44.4 309.62 11.27"/><polyline class="cls-4" points="282.05 145.1 291.12 154.4 326.62 121.27"/><polyline class="cls-4" points="13.05 46.1 22.12 55.4 57.62 22.27"/></svg>